<svg width="132" height="99" viewBox="0 0 132 99" fill="none" xmlns="http://www.w3.org/2000/svg">
<path d="M73.0101 71.6452C61.3725 57.8534 62.8092 36.1599 75.249 22.9703C86.7428 10.0217 106.151 4.40857 122.494 10.2505V10.6239C120.674 11.6357 118.674 12.3946 116.842 13.3341C114.795 14.2977 112.353 15.5263 110.317 16.5141C109.575 16.9477 107.456 18.0679 106.666 18.4774C93.9385 25.5841 81.7861 35.2083 76.9252 49.3976C74.6743 55.625 73.7524 62.9485 73.3453 71.5007L72.9981 71.6332L73.0101 71.6452Z" fill="#538D6B"/>
<path d="M122.374 24.1146C123.02 39.1351 121.32 47.0849 113.478 59.9974C97.0873 86.9788 58.3913 85.3407 33.5837 70.7659C32.3265 70.0311 7.9619 55.2637 9.5902 33.8592C10.2248 25.4516 15.0139 14.1532 24.7118 10.6841C34.0626 7.33556 45.7959 12.0453 50.3935 18.2727C65.4552 38.7135 32.7097 73.6447 19.7551 89.4481" stroke="#F6C73A" stroke-width="15.88" stroke-linecap="round" stroke-linejoin="round"/>
</svg>
